<mxfile host="app.diagrams.net" agent="Mozilla/5.0 (Windows NT 10.0; Win64; x64) AppleWebKit/537.36 (KHTML, like Gecko) Chrome/133.0.0.0 Safari/537.36" version="26.0.14">
  <diagram name="Page-1" id="xz9I1iRpnmdF8bvQnPCr">
    <mxGraphModel dx="2901" dy="1098" grid="1" gridSize="10" guides="1" tooltips="1" connect="1" arrows="1" fold="1" page="1" pageScale="1" pageWidth="827" pageHeight="1169" background="#ffffff" math="0" shadow="0">
      <root>
        <mxCell id="0" />
        <mxCell id="1" parent="0" />
        <mxCell id="X8IcFlgeV4MJHh56Xn09-7" value="&lt;font color=&quot;#ac0bb8&quot;&gt;Public&lt;/font&gt;" style="points=[[0,0],[0.25,0],[0.5,0],[0.75,0],[1,0],[1,0.25],[1,0.5],[1,0.75],[1,1],[0.75,1],[0.5,1],[0.25,1],[0,1],[0,0.75],[0,0.5],[0,0.25]];outlineConnect=0;gradientColor=none;html=1;whiteSpace=wrap;fontSize=12;fontStyle=0;container=1;pointerEvents=0;collapsible=0;recursiveResize=0;shape=mxgraph.aws4.group;grIcon=mxgraph.aws4.group_vpc2;strokeColor=#8C4FFF;fillColor=none;verticalAlign=top;align=left;spacingLeft=30;fontColor=#AAB7B8;dashed=0;" parent="1" vertex="1">
          <mxGeometry x="586" y="37" width="310" height="790" as="geometry" />
        </mxCell>
        <mxCell id="X8IcFlgeV4MJHh56Xn09-23" value="&lt;font color=&quot;#ac0bb8&quot;&gt;Private&lt;/font&gt;" style="points=[[0,0],[0.25,0],[0.5,0],[0.75,0],[1,0],[1,0.25],[1,0.5],[1,0.75],[1,1],[0.75,1],[0.5,1],[0.25,1],[0,1],[0,0.75],[0,0.5],[0,0.25]];outlineConnect=0;gradientColor=none;html=1;whiteSpace=wrap;fontSize=12;fontStyle=0;container=1;pointerEvents=0;collapsible=0;recursiveResize=0;shape=mxgraph.aws4.group;grIcon=mxgraph.aws4.group_vpc2;strokeColor=#8C4FFF;fillColor=none;verticalAlign=top;align=left;spacingLeft=30;fontColor=#AAB7B8;dashed=0;" parent="1" vertex="1">
          <mxGeometry x="1080" y="37" width="321" height="780" as="geometry" />
        </mxCell>
        <mxCell id="X8IcFlgeV4MJHh56Xn09-37" value="users" style="sketch=0;outlineConnect=0;gradientColor=none;fontColor=#545B64;strokeColor=none;fillColor=#879196;dashed=0;verticalLabelPosition=bottom;verticalAlign=top;align=center;html=1;fontSize=12;fontStyle=0;aspect=fixed;shape=mxgraph.aws4.illustration_users;pointerEvents=1" parent="1" vertex="1">
          <mxGeometry x="-70" y="190" width="100" height="100" as="geometry" />
        </mxCell>
        <mxCell id="X8IcFlgeV4MJHh56Xn09-40" value="&lt;h1&gt;Maintenance&lt;/h1&gt;&lt;div&gt;- 점검 체크&lt;/div&gt;&lt;div&gt;- 로그인&lt;/div&gt;&lt;div&gt;- 유저수에 따라 확장&lt;br&gt;&lt;/div&gt;&lt;div&gt;&lt;br&gt;&lt;br&gt;&lt;/div&gt;&lt;p&gt;&lt;/p&gt;" style="text;html=1;strokeColor=none;fillColor=none;spacing=5;spacingTop=-20;whiteSpace=wrap;overflow=hidden;rounded=0;" parent="1" vertex="1">
          <mxGeometry x="1800" y="80" width="190" height="120" as="geometry" />
        </mxCell>
        <mxCell id="X8IcFlgeV4MJHh56Xn09-41" value="&lt;h1&gt;Game Server&lt;/h1&gt;&lt;div&gt;- 유저 상태 및 동기화&lt;/div&gt;&lt;div&gt;- 컨텐츠 관련 로직&lt;br&gt;&lt;br&gt;&lt;/div&gt;&lt;p&gt;&lt;/p&gt;" style="text;html=1;strokeColor=none;fillColor=none;spacing=5;spacingTop=-20;whiteSpace=wrap;overflow=hidden;rounded=0;" parent="1" vertex="1">
          <mxGeometry x="1800" y="233" width="190" height="120" as="geometry" />
        </mxCell>
        <mxCell id="X8IcFlgeV4MJHh56Xn09-42" value="&lt;h1&gt;Rank Server&lt;br&gt;&lt;/h1&gt;&lt;div&gt;- 유저 랭킹 관련 동기화&lt;/div&gt;&lt;div&gt;&lt;br&gt;&lt;br&gt;&lt;/div&gt;&lt;p&gt;&lt;/p&gt;" style="text;html=1;strokeColor=none;fillColor=none;spacing=5;spacingTop=-20;whiteSpace=wrap;overflow=hidden;rounded=0;" parent="1" vertex="1">
          <mxGeometry x="1800" y="363" width="190" height="120" as="geometry" />
        </mxCell>
        <mxCell id="X8IcFlgeV4MJHh56Xn09-43" value="&lt;h1&gt;Guild Server&lt;/h1&gt;&lt;div&gt;- 유저 길드 관련 동기화&lt;/div&gt;&lt;div&gt;&lt;br&gt;&lt;br&gt;&lt;/div&gt;&lt;p&gt;&lt;/p&gt;" style="text;html=1;strokeColor=none;fillColor=none;spacing=5;spacingTop=-20;whiteSpace=wrap;overflow=hidden;rounded=0;" parent="1" vertex="1">
          <mxGeometry x="1800" y="483" width="190" height="120" as="geometry" />
        </mxCell>
        <mxCell id="X8IcFlgeV4MJHh56Xn09-44" value="&lt;h1&gt;Redis&lt;br&gt;&lt;/h1&gt;&lt;div&gt;- 데이터 캐싱&lt;br&gt;&lt;/div&gt;&lt;div&gt;- 랭킹 데이터 저장&lt;/div&gt;&lt;div&gt;&lt;br&gt;&lt;br&gt;&lt;/div&gt;&lt;p&gt;&lt;/p&gt;" style="text;html=1;strokeColor=none;fillColor=none;spacing=5;spacingTop=-20;whiteSpace=wrap;overflow=hidden;rounded=0;" parent="1" vertex="1">
          <mxGeometry x="1806" y="582.5" width="201" height="120" as="geometry" />
        </mxCell>
        <mxCell id="X8IcFlgeV4MJHh56Xn09-50" value="AWS Cloud" style="points=[[0,0],[0.25,0],[0.5,0],[0.75,0],[1,0],[1,0.25],[1,0.5],[1,0.75],[1,1],[0.75,1],[0.5,1],[0.25,1],[0,1],[0,0.75],[0,0.5],[0,0.25]];outlineConnect=0;gradientColor=none;html=1;whiteSpace=wrap;fontSize=12;fontStyle=0;container=1;pointerEvents=0;collapsible=0;recursiveResize=0;shape=mxgraph.aws4.group;grIcon=mxgraph.aws4.group_aws_cloud_alt;strokeColor=#232F3E;fillColor=none;verticalAlign=top;align=left;spacingLeft=30;fontColor=#232F3E;dashed=0;" parent="1" vertex="1">
          <mxGeometry x="281" y="10" width="1499" height="970" as="geometry" />
        </mxCell>
        <mxCell id="X8IcFlgeV4MJHh56Xn09-12" value="MaintenanceServer - Maintenance, Auth" style="points=[[0,0],[0.25,0],[0.5,0],[0.75,0],[1,0],[1,0.25],[1,0.5],[1,0.75],[1,1],[0.75,1],[0.5,1],[0.25,1],[0,1],[0,0.75],[0,0.5],[0,0.25]];outlineConnect=0;gradientColor=none;html=1;whiteSpace=wrap;fontSize=12;fontStyle=0;container=1;pointerEvents=0;collapsible=0;recursiveResize=0;shape=mxgraph.aws4.group;grIcon=mxgraph.aws4.group_ec2_instance_contents;strokeColor=#D86613;fillColor=none;verticalAlign=top;align=left;spacingLeft=30;fontColor=#D86613;dashed=0;" parent="X8IcFlgeV4MJHh56Xn09-50" vertex="1">
          <mxGeometry x="320" y="130" width="280" height="140" as="geometry" />
        </mxCell>
        <mxCell id="X8IcFlgeV4MJHh56Xn09-13" value="" style="sketch=0;points=[[0,0,0],[0.25,0,0],[0.5,0,0],[0.75,0,0],[1,0,0],[0,1,0],[0.25,1,0],[0.5,1,0],[0.75,1,0],[1,1,0],[0,0.25,0],[0,0.5,0],[0,0.75,0],[1,0.25,0],[1,0.5,0],[1,0.75,0]];outlineConnect=0;fontColor=#232F3E;fillColor=#ED7100;strokeColor=#ffffff;dashed=0;verticalLabelPosition=bottom;verticalAlign=top;align=center;html=1;fontSize=12;fontStyle=0;aspect=fixed;shape=mxgraph.aws4.resourceIcon;resIcon=mxgraph.aws4.ec2;" parent="X8IcFlgeV4MJHh56Xn09-12" vertex="1">
          <mxGeometry x="39" y="51" width="78" height="78" as="geometry" />
        </mxCell>
        <mxCell id="X8IcFlgeV4MJHh56Xn09-14" value="" style="sketch=0;points=[[0,0,0],[0.25,0,0],[0.5,0,0],[0.75,0,0],[1,0,0],[0,1,0],[0.25,1,0],[0.5,1,0],[0.75,1,0],[1,1,0],[0,0.25,0],[0,0.5,0],[0,0.75,0],[1,0.25,0],[1,0.5,0],[1,0.75,0]];outlineConnect=0;fontColor=#232F3E;fillColor=#ED7100;strokeColor=#ffffff;dashed=0;verticalLabelPosition=bottom;verticalAlign=top;align=center;html=1;fontSize=12;fontStyle=0;aspect=fixed;shape=mxgraph.aws4.resourceIcon;resIcon=mxgraph.aws4.ec2;" parent="X8IcFlgeV4MJHh56Xn09-12" vertex="1">
          <mxGeometry x="159" y="51" width="78" height="78" as="geometry" />
        </mxCell>
        <mxCell id="X8IcFlgeV4MJHh56Xn09-8" value="GameServer - Contents" style="points=[[0,0],[0.25,0],[0.5,0],[0.75,0],[1,0],[1,0.25],[1,0.5],[1,0.75],[1,1],[0.75,1],[0.5,1],[0.25,1],[0,1],[0,0.75],[0,0.5],[0,0.25]];outlineConnect=0;gradientColor=none;html=1;whiteSpace=wrap;fontSize=12;fontStyle=0;container=1;pointerEvents=0;collapsible=0;recursiveResize=0;shape=mxgraph.aws4.group;grIcon=mxgraph.aws4.group_ec2_instance_contents;strokeColor=#D86613;fillColor=none;verticalAlign=top;align=left;spacingLeft=30;fontColor=#D86613;dashed=0;" parent="X8IcFlgeV4MJHh56Xn09-50" vertex="1">
          <mxGeometry x="320" y="450" width="280" height="140" as="geometry" />
        </mxCell>
        <mxCell id="X8IcFlgeV4MJHh56Xn09-9" value="" style="sketch=0;points=[[0,0,0],[0.25,0,0],[0.5,0,0],[0.75,0,0],[1,0,0],[0,1,0],[0.25,1,0],[0.5,1,0],[0.75,1,0],[1,1,0],[0,0.25,0],[0,0.5,0],[0,0.75,0],[1,0.25,0],[1,0.5,0],[1,0.75,0]];outlineConnect=0;fontColor=#232F3E;fillColor=#ED7100;strokeColor=#ffffff;dashed=0;verticalLabelPosition=bottom;verticalAlign=top;align=center;html=1;fontSize=12;fontStyle=0;aspect=fixed;shape=mxgraph.aws4.resourceIcon;resIcon=mxgraph.aws4.ec2;" parent="X8IcFlgeV4MJHh56Xn09-8" vertex="1">
          <mxGeometry x="11" y="51" width="78" height="78" as="geometry" />
        </mxCell>
        <mxCell id="X8IcFlgeV4MJHh56Xn09-10" value="" style="sketch=0;points=[[0,0,0],[0.25,0,0],[0.5,0,0],[0.75,0,0],[1,0,0],[0,1,0],[0.25,1,0],[0.5,1,0],[0.75,1,0],[1,1,0],[0,0.25,0],[0,0.5,0],[0,0.75,0],[1,0.25,0],[1,0.5,0],[1,0.75,0]];outlineConnect=0;fontColor=#232F3E;fillColor=#ED7100;strokeColor=#ffffff;dashed=0;verticalLabelPosition=bottom;verticalAlign=top;align=center;html=1;fontSize=12;fontStyle=0;aspect=fixed;shape=mxgraph.aws4.resourceIcon;resIcon=mxgraph.aws4.ec2;" parent="X8IcFlgeV4MJHh56Xn09-8" vertex="1">
          <mxGeometry x="101" y="51" width="78" height="78" as="geometry" />
        </mxCell>
        <mxCell id="X8IcFlgeV4MJHh56Xn09-11" value="" style="sketch=0;points=[[0,0,0],[0.25,0,0],[0.5,0,0],[0.75,0,0],[1,0,0],[0,1,0],[0.25,1,0],[0.5,1,0],[0.75,1,0],[1,1,0],[0,0.25,0],[0,0.5,0],[0,0.75,0],[1,0.25,0],[1,0.5,0],[1,0.75,0]];outlineConnect=0;fontColor=#232F3E;fillColor=#ED7100;strokeColor=#ffffff;dashed=0;verticalLabelPosition=bottom;verticalAlign=top;align=center;html=1;fontSize=12;fontStyle=0;aspect=fixed;shape=mxgraph.aws4.resourceIcon;resIcon=mxgraph.aws4.ec2;" parent="X8IcFlgeV4MJHh56Xn09-8" vertex="1">
          <mxGeometry x="190" y="51" width="78" height="78" as="geometry" />
        </mxCell>
        <mxCell id="X8IcFlgeV4MJHh56Xn09-1" value="LOAD BALANCE" style="sketch=0;points=[[0,0,0],[0.25,0,0],[0.5,0,0],[0.75,0,0],[1,0,0],[0,1,0],[0.25,1,0],[0.5,1,0],[0.75,1,0],[1,1,0],[0,0.25,0],[0,0.5,0],[0,0.75,0],[1,0.25,0],[1,0.5,0],[1,0.75,0]];outlineConnect=0;fontColor=#232F3E;fillColor=#8C4FFF;strokeColor=#ffffff;dashed=0;verticalLabelPosition=bottom;verticalAlign=top;align=center;html=1;fontSize=12;fontStyle=0;aspect=fixed;shape=mxgraph.aws4.resourceIcon;resIcon=mxgraph.aws4.elastic_load_balancing;" parent="X8IcFlgeV4MJHh56Xn09-50" vertex="1">
          <mxGeometry x="19" y="180" width="78" height="78" as="geometry" />
        </mxCell>
        <mxCell id="X8IcFlgeV4MJHh56Xn09-2" value="" style="edgeStyle=orthogonalEdgeStyle;html=1;endArrow=block;elbow=vertical;startArrow=block;startFill=1;endFill=1;strokeColor=#545B64;rounded=0;strokeWidth=2;" parent="X8IcFlgeV4MJHh56Xn09-50" edge="1">
          <mxGeometry width="100" relative="1" as="geometry">
            <mxPoint x="-200" y="229" as="sourcePoint" />
            <mxPoint x="-20" y="229" as="targetPoint" />
            <Array as="points">
              <mxPoint x="-80" y="228.5" />
              <mxPoint x="-80" y="228.5" />
            </Array>
          </mxGeometry>
        </mxCell>
        <mxCell id="X8IcFlgeV4MJHh56Xn09-3" value="1" style="rounded=1;whiteSpace=wrap;html=1;fillColor=#007CBD;strokeColor=none;fontColor=#FFFFFF;fontStyle=1;fontSize=22;" parent="X8IcFlgeV4MJHh56Xn09-50" vertex="1">
          <mxGeometry x="-120" y="180" width="40" height="38" as="geometry" />
        </mxCell>
        <mxCell id="X8IcFlgeV4MJHh56Xn09-4" value="LOAD BALANCE" style="sketch=0;points=[[0,0,0],[0.25,0,0],[0.5,0,0],[0.75,0,0],[1,0,0],[0,1,0],[0.25,1,0],[0.5,1,0],[0.75,1,0],[1,1,0],[0,0.25,0],[0,0.5,0],[0,0.75,0],[1,0.25,0],[1,0.5,0],[1,0.75,0]];outlineConnect=0;fontColor=#232F3E;fillColor=#8C4FFF;strokeColor=#ffffff;dashed=0;verticalLabelPosition=bottom;verticalAlign=top;align=center;html=1;fontSize=12;fontStyle=0;aspect=fixed;shape=mxgraph.aws4.resourceIcon;resIcon=mxgraph.aws4.elastic_load_balancing;" parent="X8IcFlgeV4MJHh56Xn09-50" vertex="1">
          <mxGeometry x="19" y="458" width="78" height="78" as="geometry" />
        </mxCell>
        <mxCell id="X8IcFlgeV4MJHh56Xn09-39" value="" style="edgeStyle=orthogonalEdgeStyle;html=1;endArrow=block;elbow=vertical;startArrow=block;startFill=1;endFill=1;strokeColor=#545B64;rounded=0;strokeWidth=2;" parent="X8IcFlgeV4MJHh56Xn09-50" edge="1">
          <mxGeometry width="100" relative="1" as="geometry">
            <mxPoint x="109" y="513" as="sourcePoint" />
            <mxPoint x="289" y="513" as="targetPoint" />
            <Array as="points">
              <mxPoint x="229" y="512.5" />
              <mxPoint x="229" y="512.5" />
            </Array>
          </mxGeometry>
        </mxCell>
        <mxCell id="X8IcFlgeV4MJHh56Xn09-59" value="" style="edgeStyle=orthogonalEdgeStyle;html=1;endArrow=block;elbow=vertical;startArrow=block;startFill=1;endFill=1;strokeColor=#545B64;rounded=0;strokeWidth=2;entryX=0.5;entryY=0;entryDx=0;entryDy=0;" parent="X8IcFlgeV4MJHh56Xn09-50" target="X8IcFlgeV4MJHh56Xn09-8" edge="1">
          <mxGeometry width="100" relative="1" as="geometry">
            <mxPoint x="460" y="270" as="sourcePoint" />
            <mxPoint x="546" y="340" as="targetPoint" />
            <Array as="points" />
          </mxGeometry>
        </mxCell>
        <mxCell id="X8IcFlgeV4MJHh56Xn09-60" value="" style="edgeStyle=orthogonalEdgeStyle;html=1;endArrow=block;elbow=vertical;startArrow=block;startFill=1;endFill=1;strokeColor=#545B64;rounded=0;strokeWidth=2;" parent="X8IcFlgeV4MJHh56Xn09-50" edge="1">
          <mxGeometry width="100" relative="1" as="geometry">
            <mxPoint x="109" y="229.5" as="sourcePoint" />
            <mxPoint x="289" y="229.5" as="targetPoint" />
            <Array as="points">
              <mxPoint x="229" y="229" />
              <mxPoint x="229" y="229" />
            </Array>
          </mxGeometry>
        </mxCell>
        <mxCell id="X8IcFlgeV4MJHh56Xn09-61" value="&lt;div&gt;ElasticCache&lt;br&gt;&lt;/div&gt;&lt;div&gt;Redis&lt;/div&gt;" style="sketch=0;outlineConnect=0;fontColor=#232F3E;gradientColor=none;fillColor=#C925D1;strokeColor=none;dashed=0;verticalLabelPosition=bottom;verticalAlign=top;align=center;html=1;fontSize=12;fontStyle=0;aspect=fixed;pointerEvents=1;shape=mxgraph.aws4.elasticache_for_redis;" parent="X8IcFlgeV4MJHh56Xn09-50" vertex="1">
          <mxGeometry x="922.5" y="439" width="78" height="69" as="geometry" />
        </mxCell>
        <mxCell id="X8IcFlgeV4MJHh56Xn09-62" value="&lt;div&gt;ElasticCache&lt;br&gt;&lt;/div&gt;&lt;div&gt;Redis&lt;/div&gt;" style="sketch=0;outlineConnect=0;fontColor=#232F3E;gradientColor=none;fillColor=#C925D1;strokeColor=none;dashed=0;verticalLabelPosition=bottom;verticalAlign=top;align=center;html=1;fontSize=12;fontStyle=0;aspect=fixed;pointerEvents=1;shape=mxgraph.aws4.elasticache_for_redis;" parent="X8IcFlgeV4MJHh56Xn09-50" vertex="1">
          <mxGeometry x="831.5" y="439" width="78" height="69" as="geometry" />
        </mxCell>
        <mxCell id="X8IcFlgeV4MJHh56Xn09-63" value="&lt;div&gt;ElasticCache&lt;br&gt;&lt;/div&gt;&lt;div&gt;Redis&lt;/div&gt;" style="sketch=0;outlineConnect=0;fontColor=#232F3E;gradientColor=none;fillColor=#C925D1;strokeColor=none;dashed=0;verticalLabelPosition=bottom;verticalAlign=top;align=center;html=1;fontSize=12;fontStyle=0;aspect=fixed;pointerEvents=1;shape=mxgraph.aws4.elasticache_for_redis;" parent="X8IcFlgeV4MJHh56Xn09-50" vertex="1">
          <mxGeometry x="1010.5" y="439" width="78" height="69" as="geometry" />
        </mxCell>
        <mxCell id="X8IcFlgeV4MJHh56Xn09-69" value="LogAnalytics" style="points=[[0,0],[0.25,0],[0.5,0],[0.75,0],[1,0],[1,0.25],[1,0.5],[1,0.75],[1,1],[0.75,1],[0.5,1],[0.25,1],[0,1],[0,0.75],[0,0.5],[0,0.25]];outlineConnect=0;gradientColor=none;html=1;whiteSpace=wrap;fontSize=12;fontStyle=0;container=1;pointerEvents=0;collapsible=0;recursiveResize=0;shape=mxgraph.aws4.group;grIcon=mxgraph.aws4.group_ec2_instance_contents;strokeColor=#D86613;fillColor=none;verticalAlign=top;align=left;spacingLeft=30;fontColor=#D86613;dashed=0;" parent="X8IcFlgeV4MJHh56Xn09-50" vertex="1">
          <mxGeometry x="820" y="660" width="280" height="140" as="geometry" />
        </mxCell>
        <mxCell id="X8IcFlgeV4MJHh56Xn09-71" value="" style="sketch=0;points=[[0,0,0],[0.25,0,0],[0.5,0,0],[0.75,0,0],[1,0,0],[0,1,0],[0.25,1,0],[0.5,1,0],[0.75,1,0],[1,1,0],[0,0.25,0],[0,0.5,0],[0,0.75,0],[1,0.25,0],[1,0.5,0],[1,0.75,0]];outlineConnect=0;fontColor=#232F3E;fillColor=#ED7100;strokeColor=#ffffff;dashed=0;verticalLabelPosition=bottom;verticalAlign=top;align=center;html=1;fontSize=12;fontStyle=0;aspect=fixed;shape=mxgraph.aws4.resourceIcon;resIcon=mxgraph.aws4.ec2;" parent="X8IcFlgeV4MJHh56Xn09-69" vertex="1">
          <mxGeometry x="101" y="51" width="78" height="78" as="geometry" />
        </mxCell>
        <mxCell id="X8IcFlgeV4MJHh56Xn09-73" value="" style="edgeStyle=orthogonalEdgeStyle;html=1;endArrow=block;elbow=vertical;startArrow=block;startFill=1;endFill=1;strokeColor=#545B64;rounded=0;strokeWidth=2;" parent="X8IcFlgeV4MJHh56Xn09-50" edge="1">
          <mxGeometry width="100" relative="1" as="geometry">
            <mxPoint x="619" y="508" as="sourcePoint" />
            <mxPoint x="789" y="508" as="targetPoint" />
            <Array as="points">
              <mxPoint x="749" y="508" />
              <mxPoint x="749" y="508" />
            </Array>
          </mxGeometry>
        </mxCell>
        <mxCell id="X8IcFlgeV4MJHh56Xn09-74" value="" style="edgeStyle=orthogonalEdgeStyle;html=1;endArrow=block;elbow=vertical;startArrow=block;startFill=1;endFill=1;strokeColor=#545B64;rounded=0;strokeWidth=2;" parent="X8IcFlgeV4MJHh56Xn09-50" edge="1" target="X8IcFlgeV4MJHh56Xn09-61">
          <mxGeometry width="100" relative="1" as="geometry">
            <mxPoint x="962" y="260" as="sourcePoint" />
            <mxPoint x="960" y="330" as="targetPoint" />
            <Array as="points" />
          </mxGeometry>
        </mxCell>
        <mxCell id="X8IcFlgeV4MJHh56Xn09-76" value="" style="edgeStyle=orthogonalEdgeStyle;html=1;endArrow=block;elbow=vertical;startArrow=block;startFill=1;endFill=1;strokeColor=#545B64;rounded=0;strokeWidth=2;exitX=0.5;exitY=1;exitDx=0;exitDy=0;" parent="X8IcFlgeV4MJHh56Xn09-50" edge="1">
          <mxGeometry width="100" relative="1" as="geometry">
            <mxPoint x="960" y="548" as="sourcePoint" />
            <mxPoint x="960" y="660" as="targetPoint" />
            <Array as="points" />
          </mxGeometry>
        </mxCell>
        <mxCell id="X8IcFlgeV4MJHh56Xn09-132" value="&lt;div&gt;Main&amp;nbsp;&lt;/div&gt;&lt;div&gt;Database&lt;/div&gt;" style="sketch=0;outlineConnect=0;fontColor=#232F3E;gradientColor=none;fillColor=#C925D1;strokeColor=none;dashed=0;verticalLabelPosition=bottom;verticalAlign=top;align=center;html=1;fontSize=12;fontStyle=0;aspect=fixed;pointerEvents=1;shape=mxgraph.aws4.aurora_instance;" parent="X8IcFlgeV4MJHh56Xn09-50" vertex="1">
          <mxGeometry x="409" y="850" width="78" height="78" as="geometry" />
        </mxCell>
        <mxCell id="X8IcFlgeV4MJHh56Xn09-136" value="&lt;div&gt;Main&amp;nbsp;&lt;/div&gt;&lt;div&gt;Database&lt;/div&gt;" style="sketch=0;outlineConnect=0;fontColor=#232F3E;gradientColor=none;fillColor=#C925D1;strokeColor=none;dashed=0;verticalLabelPosition=bottom;verticalAlign=top;align=center;html=1;fontSize=12;fontStyle=0;aspect=fixed;pointerEvents=1;shape=mxgraph.aws4.aurora_instance;" parent="X8IcFlgeV4MJHh56Xn09-50" vertex="1">
          <mxGeometry x="320" y="850" width="78" height="78" as="geometry" />
        </mxCell>
        <mxCell id="X8IcFlgeV4MJHh56Xn09-135" value="&lt;div&gt;Main&amp;nbsp;&lt;/div&gt;&lt;div&gt;Database&lt;/div&gt;" style="sketch=0;outlineConnect=0;fontColor=#232F3E;gradientColor=none;fillColor=#C925D1;strokeColor=none;dashed=0;verticalLabelPosition=bottom;verticalAlign=top;align=center;html=1;fontSize=12;fontStyle=0;aspect=fixed;pointerEvents=1;shape=mxgraph.aws4.aurora_instance;" parent="X8IcFlgeV4MJHh56Xn09-50" vertex="1">
          <mxGeometry x="499" y="850" width="78" height="78" as="geometry" />
        </mxCell>
        <mxCell id="X8IcFlgeV4MJHh56Xn09-137" value="" style="edgeStyle=orthogonalEdgeStyle;html=1;endArrow=block;elbow=vertical;startArrow=block;startFill=1;endFill=1;strokeColor=#545B64;rounded=0;strokeWidth=2;exitX=0.5;exitY=1;exitDx=0;exitDy=0;entryX=0.5;entryY=0;entryDx=0;entryDy=0;" parent="X8IcFlgeV4MJHh56Xn09-50" edge="1" source="X8IcFlgeV4MJHh56Xn09-8">
          <mxGeometry width="100" relative="1" as="geometry">
            <mxPoint x="459.5" y="645" as="sourcePoint" />
            <mxPoint x="459.5" y="850" as="targetPoint" />
            <Array as="points" />
          </mxGeometry>
        </mxCell>
        <mxCell id="qD2tyuTuSyh-bRccqNmw-1" value="Auth Token" style="text;html=1;align=center;verticalAlign=middle;resizable=0;points=[];autosize=1;strokeColor=none;fillColor=none;" vertex="1" parent="X8IcFlgeV4MJHh56Xn09-50">
          <mxGeometry x="466" y="308" width="80" height="30" as="geometry" />
        </mxCell>
        <mxCell id="X8IcFlgeV4MJHh56Xn09-29" value="LogAggregation - 로그 수집" style="points=[[0,0],[0.25,0],[0.5,0],[0.75,0],[1,0],[1,0.25],[1,0.5],[1,0.75],[1,1],[0.75,1],[0.5,1],[0.25,1],[0,1],[0,0.75],[0,0.5],[0,0.25]];outlineConnect=0;gradientColor=none;html=1;whiteSpace=wrap;fontSize=12;fontStyle=0;container=1;pointerEvents=0;collapsible=0;recursiveResize=0;shape=mxgraph.aws4.group;grIcon=mxgraph.aws4.group_ec2_instance_contents;strokeColor=#D86613;fillColor=none;verticalAlign=top;align=left;spacingLeft=30;fontColor=#D86613;dashed=0;" parent="X8IcFlgeV4MJHh56Xn09-50" vertex="1">
          <mxGeometry x="821.5" y="119" width="280" height="140" as="geometry" />
        </mxCell>
        <mxCell id="X8IcFlgeV4MJHh56Xn09-31" value="" style="sketch=0;points=[[0,0,0],[0.25,0,0],[0.5,0,0],[0.75,0,0],[1,0,0],[0,1,0],[0.25,1,0],[0.5,1,0],[0.75,1,0],[1,1,0],[0,0.25,0],[0,0.5,0],[0,0.75,0],[1,0.25,0],[1,0.5,0],[1,0.75,0]];outlineConnect=0;fontColor=#232F3E;fillColor=#ED7100;strokeColor=#ffffff;dashed=0;verticalLabelPosition=bottom;verticalAlign=top;align=center;html=1;fontSize=12;fontStyle=0;aspect=fixed;shape=mxgraph.aws4.resourceIcon;resIcon=mxgraph.aws4.ec2;" parent="X8IcFlgeV4MJHh56Xn09-29" vertex="1">
          <mxGeometry x="101" y="51" width="78" height="78" as="geometry" />
        </mxCell>
        <mxCell id="qD2tyuTuSyh-bRccqNmw-11" value="" style="edgeStyle=orthogonalEdgeStyle;html=1;endArrow=block;elbow=vertical;startArrow=block;startFill=1;endFill=1;strokeColor=#545B64;rounded=0;strokeWidth=2;" edge="1" parent="X8IcFlgeV4MJHh56Xn09-50" target="qD2tyuTuSyh-bRccqNmw-3">
          <mxGeometry width="100" relative="1" as="geometry">
            <mxPoint x="1100" y="750" as="sourcePoint" />
            <mxPoint x="1257" y="690" as="targetPoint" />
            <Array as="points" />
          </mxGeometry>
        </mxCell>
        <mxCell id="qD2tyuTuSyh-bRccqNmw-10" value="Log DB에서 데이터를 수집해서 지표 데이터 생성 후 Insert" style="text;html=1;align=center;verticalAlign=middle;resizable=0;points=[];autosize=1;strokeColor=none;fillColor=none;" vertex="1" parent="X8IcFlgeV4MJHh56Xn09-50">
          <mxGeometry x="1149" y="760" width="330" height="30" as="geometry" />
        </mxCell>
        <mxCell id="X8IcFlgeV4MJHh56Xn09-55" value="&lt;h1&gt;Aurora (Mysql)&lt;br&gt;&lt;/h1&gt;&lt;div&gt;- 메인 데이터 저장&lt;/div&gt;&lt;div&gt;&lt;br&gt;&lt;/div&gt;&lt;p&gt;&lt;/p&gt;" style="text;html=1;strokeColor=none;fillColor=none;spacing=5;spacingTop=-20;whiteSpace=wrap;overflow=hidden;rounded=0;" parent="1" vertex="1">
          <mxGeometry x="1800" y="692.5" width="201" height="120" as="geometry" />
        </mxCell>
        <mxCell id="X8IcFlgeV4MJHh56Xn09-5" value="" style="edgeStyle=orthogonalEdgeStyle;html=1;endArrow=block;elbow=vertical;startArrow=block;startFill=1;endFill=1;strokeColor=#545B64;rounded=0;strokeWidth=2;" parent="1" edge="1">
          <mxGeometry width="100" relative="1" as="geometry">
            <mxPoint x="90" y="525" as="sourcePoint" />
            <mxPoint x="270" y="525" as="targetPoint" />
            <Array as="points">
              <mxPoint x="210" y="524.5" />
              <mxPoint x="210" y="524.5" />
            </Array>
          </mxGeometry>
        </mxCell>
        <mxCell id="X8IcFlgeV4MJHh56Xn09-6" value="2" style="rounded=1;whiteSpace=wrap;html=1;fillColor=#007CBD;strokeColor=none;fontColor=#FFFFFF;fontStyle=1;fontSize=22;" parent="1" vertex="1">
          <mxGeometry x="170" y="476" width="40" height="38" as="geometry" />
        </mxCell>
        <mxCell id="X8IcFlgeV4MJHh56Xn09-58" value="users" style="sketch=0;outlineConnect=0;gradientColor=none;fontColor=#545B64;strokeColor=none;fillColor=#879196;dashed=0;verticalLabelPosition=bottom;verticalAlign=top;align=center;html=1;fontSize=12;fontStyle=0;aspect=fixed;shape=mxgraph.aws4.illustration_users;pointerEvents=1" parent="1" vertex="1">
          <mxGeometry x="-70" y="465" width="100" height="100" as="geometry" />
        </mxCell>
        <mxCell id="qD2tyuTuSyh-bRccqNmw-2" value="&lt;div&gt;Log DB&lt;/div&gt;&lt;div&gt;&lt;br&gt;&lt;/div&gt;" style="sketch=0;outlineConnect=0;fontColor=#232F3E;gradientColor=none;fillColor=#C925D1;strokeColor=none;dashed=0;verticalLabelPosition=bottom;verticalAlign=top;align=center;html=1;fontSize=12;fontStyle=0;aspect=fixed;pointerEvents=1;shape=mxgraph.aws4.aurora_instance;" vertex="1" parent="1">
          <mxGeometry x="1589" y="450" width="78" height="78" as="geometry" />
        </mxCell>
        <mxCell id="qD2tyuTuSyh-bRccqNmw-3" value="" style="sketch=0;outlineConnect=0;fontColor=#232F3E;gradientColor=none;fillColor=#C925D1;strokeColor=none;dashed=0;verticalLabelPosition=bottom;verticalAlign=top;align=center;html=1;fontSize=12;fontStyle=0;aspect=fixed;pointerEvents=1;shape=mxgraph.aws4.aurora_instance;" vertex="1" parent="1">
          <mxGeometry x="1500" y="450" width="78" height="78" as="geometry" />
        </mxCell>
        <mxCell id="qD2tyuTuSyh-bRccqNmw-4" value="" style="sketch=0;outlineConnect=0;fontColor=#232F3E;gradientColor=none;fillColor=#C925D1;strokeColor=none;dashed=0;verticalLabelPosition=bottom;verticalAlign=top;align=center;html=1;fontSize=12;fontStyle=0;aspect=fixed;pointerEvents=1;shape=mxgraph.aws4.aurora_instance;" vertex="1" parent="1">
          <mxGeometry x="1679" y="450" width="78" height="78" as="geometry" />
        </mxCell>
        <mxCell id="qD2tyuTuSyh-bRccqNmw-5" value="" style="edgeStyle=orthogonalEdgeStyle;html=1;endArrow=block;elbow=vertical;startArrow=block;startFill=1;endFill=1;strokeColor=#545B64;rounded=0;strokeWidth=2;" edge="1" parent="1" source="X8IcFlgeV4MJHh56Xn09-29" target="qD2tyuTuSyh-bRccqNmw-3">
          <mxGeometry width="100" relative="1" as="geometry">
            <mxPoint x="1490" y="250" as="sourcePoint" />
            <mxPoint x="1490" y="429" as="targetPoint" />
            <Array as="points" />
          </mxGeometry>
        </mxCell>
        <mxCell id="qD2tyuTuSyh-bRccqNmw-6" value="Redis 에서 로그 데이터를 수집해서 Log DB로 Batch Insert" style="text;html=1;align=center;verticalAlign=middle;resizable=0;points=[];autosize=1;strokeColor=none;fillColor=none;" vertex="1" parent="1">
          <mxGeometry x="1420" y="160" width="330" height="30" as="geometry" />
        </mxCell>
      </root>
    </mxGraphModel>
  </diagram>
</mxfile>
